<svg width="16" height="16" viewBox="0 0 16 16" fill="none" xmlns="http://www.w3.org/2000/svg">
<style>
  svg {
    --color-bg: #FDFDFD;
    --color-text: #111111;
    --color-current: #F00;
  }
  @media (prefers-color-scheme: dark) {
    svg {
      --color-bg: #0A0A0A;
      --color-text: #F5F5F5;
      --color-current: #FF6E6E;
    }
  }
  .bg {
    fill: var(--color-bg);
  }
  .tick {
    fill: var(--color-text);
  }
  .current {
    fill: var(--color-current);
  }
</style>
<g clip-path="url(#clip0_311_22236)">
  <rect class="bg" width="16" height="16" />
  <path class="tick" d="M7 16L6 16L6 4L7 4L7 16Z" />
  <path class="tick" d="M4 16L3 16L3 9L4 9L4 16Z" />
  <path class="tick" d="M13 16L12 16L12 9L13 9L13 16Z" />
  <path class="tick" d="M1 16L2.50348e-07 16L0 9L1 9L1 16Z" />
  <path class="tick" d="M10 16L9 16L9 9L10 9L10 16Z" />
  <path class="current" d="M16 16L15 16L15 4.37115e-08L16 0L16 16Z" />
</g>
<defs>
<clipPath id="clip0_311_22236">
<rect width="16" height="16" fill="var(--color-bg)"/>
</clipPath>
</defs>
</svg>
